####
#
# OBJ File Generated by Meshlab
#
####
# Object bunny-low.obj
#
# Vertices: 148
# Faces: 292
#
####
vn -0.248784 0.333899 0.905115
v 29.226992 18.707151 44.539494
vn -0.157939 0.211974 0.574608
v 46.159988 16.625916 49.961536
vn -0.377756 0.506996 1.374337
v 36.518944 26.357403 43.721592
vn 0.377165 -0.437344 -0.282554
v 46.750908 -33.683292 10.309030
vn 0.973919 -1.129314 -0.729613
v 55.259842 -29.120697 14.605011
vn 0.491880 -0.570363 -0.368493
v 55.135765 -33.818977 21.711510
vn -0.521550 0.019812 0.714006
v 31.117165 26.499443 112.434212
vn -0.829882 0.031525 1.136115
v 23.362013 20.396402 106.938759
vn -0.501177 0.019038 0.686115
v 29.542870 11.765723 111.693085
vn -0.178237 -1.161254 0.915246
v 13.977301 -17.521719 65.433876
vn -0.085338 -0.555997 0.438211
v 12.460421 -27.631361 52.311466
vn -0.112411 -0.732381 0.577228
v 27.161108 -20.210508 64.589813
vn 0.012319 1.195196 -0.370558
v 21.050880 14.744042 31.485106
vn 0.006692 0.649229 -0.201287
v 5.591862 20.200201 48.569427
vn 0.818317 2.241771 -0.152288
v 56.676582 18.933500 42.754032
vn 0.170040 0.465823 -0.031644
v 63.935928 15.736155 34.695133
vn -1.430170 -0.149923 -0.732960
v -19.512016 -24.397982 57.556541
vn -0.985480 -0.103306 -0.505057
v -22.721935 -26.361109 64.221367
vn -0.368072 -0.038584 -0.188636
v -22.557022 -7.863877 60.116085
vn 0.684722 0.395631 -0.359853
v 63.092522 13.910298 22.043007
vn 0.682614 0.394413 -0.358745
v 74.103683 -2.433340 25.026283
vn 1.108549 0.640516 -0.582594
v 65.392700 1.685113 12.979102
vn -0.154356 0.876781 -0.044460
v 8.380380 43.984310 107.663826
vn -0.224134 1.273141 -0.064559
v 18.309347 45.197327 97.114212
vn -0.165527 0.940239 -0.047678
v 6.276077 42.754452 90.716042
vn 0.315360 0.964007 -0.432795
v 56.439388 12.568314 14.206014
vn 0.166341 0.508479 -0.228284
v 49.960499 21.494259 29.366737
vn -1.544006 0.220173 -0.213350
v 7.373121 -20.273106 19.886049
vn -0.424335 0.060509 -0.058634
v 10.061195 -10.791482 10.217390
vn -1.113092 0.158725 -0.153807
v 7.337845 -24.842545 15.425775
vn 0.227007 1.215552 -0.356015
v 38.374302 19.974197 16.788998
vn 0.147685 0.790805 -0.231613
v 28.565018 26.427288 32.567257
vn -0.151628 -0.890347 0.696268
v -1.814861 -7.484867 11.859421
vn -0.169482 -0.995182 0.778251
v -0.456871 -12.881787 5.253883
vn -0.248956 0.471026 0.767686
v 10.393107 6.124787 14.842429
vn -0.154309 0.291953 0.475830
v 31.862989 17.091349 15.076270
vn -0.433722 0.820605 1.337436
v 13.467396 17.502567 8.858381
vn 0.586109 1.071393 0.404406
v 4.804572 10.327667 78.931030
vn 0.625702 1.143768 0.431724
v 9.657615 7.293525 79.935822
vn 0.219506 0.401251 0.151455
v 11.322732 10.695372 68.510033
vn 1.000028 -0.156143 0.166488
v 82.996773 -9.758068 31.685160
vn 0.634206 -0.099024 0.105585
v 82.011826 -22.448847 25.699102
vn 1.428591 -0.223059 0.237837
v 84.232941 -10.809189 23.274181
vn 0.202241 1.035536 0.309411
v 16.219772 41.004177 112.513641
vn 1.227292 0.229772 -0.090291
v 3.330716 19.617216 82.537445
vn 1.033206 0.193436 -0.076012
v 4.804305 14.353054 89.171173
vn -1.156484 0.488425 -0.256289
v -23.889854 -7.028679 67.722076
vn -0.444686 0.187807 -0.098547
v -17.016325 6.631052 62.737965
vn 0.342444 -1.532092 0.782708
v 10.397546 -3.888087 89.709541
vn 0.053499 -0.239355 0.122280
v 22.616880 2.458947 96.787277
vn 0.217340 -0.972379 0.496764
v 7.051953 -3.029980 92.852959
vn -0.244564 -0.930650 0.609730
v 19.874365 -37.050163 7.225319
vn -0.191295 -0.727943 0.476924
v 31.452627 -34.743919 15.389469
vn -0.238602 -0.907962 0.594866
v 17.847952 -29.947573 17.253424
vn -0.056677 1.633620 -1.413073
v 28.902403 20.602587 94.550209
vn -0.020595 0.593616 -0.513476
v 36.363209 19.849846 93.380737
vn 0.283269 0.759626 0.059283
v 59.223038 11.886848 63.991158
vn 0.253241 0.679101 0.052999
v 68.242119 9.494752 51.547035
vn 0.558248 1.497021 0.116831
v 57.814293 13.204912 53.833424
vn 0.303396 -0.303249 -0.053657
v 77.160118 -20.248390 40.035561
vn 0.151972 -0.151899 -0.026877
v 64.277557 -29.077145 17.089655
vn 1.749429 -1.748584 -0.309393
v 75.235497 -20.461643 30.358242
vn 1.098366 0.308063 -0.179752
v 38.195709 23.468212 110.779343
vn 1.379341 0.386869 -0.225735
v 35.363232 30.643520 105.768845
vn 0.348465 -0.628738 0.190831
v 55.152161 -35.401314 50.349213
vn 0.384133 -0.693092 0.210364
v 71.847755 -25.795000 51.512608
vn 0.739328 -1.333972 0.404881
v 62.428028 -28.382292 60.188969
vn 0.578370 0.007600 0.029987
v 76.141289 -2.216267 55.115955
vn 1.217594 0.016000 0.063128
v 77.443840 -9.292519 31.786386
vn -1.031435 -0.555138 0.099633
v -20.511681 -9.214548 46.441719
vn -0.899871 -0.484328 0.086924
v -15.619654 -19.234953 41.253635
vn -0.825102 -0.444086 0.079702
v -15.295059 -17.339926 55.172718
vn 0.321111 0.189648 0.988358
v 48.751999 -10.750254 75.248901
vn 0.248171 0.146569 0.763852
v 63.769543 -6.074312 69.472572
vn 0.385681 0.227783 1.187101
v 50.795670 1.508498 72.232697
vn -0.376762 -0.055537 -0.198363
v -16.081835 1.182789 36.272312
vn -1.292720 -0.190553 -0.680608
v -7.135612 -15.087037 23.835348
vn -1.087018 -0.160232 -0.572307
v -10.108046 -20.983580 31.131956
vn 1.609859 0.890316 0.221234
v 13.184771 0.510763 81.565674
vn 0.436077 0.241168 0.059928
v 16.881767 -3.674679 71.507210
vn -0.162529 0.077873 -0.034215
v -7.096308 11.379349 82.828041
vn -2.115891 1.013798 -0.445425
v 4.598203 36.358456 84.128960
vn -0.368621 0.484611 -0.506103
v -17.362780 -2.177474 54.555843
vn -0.332653 0.437325 -0.456720
v -5.462559 11.136494 58.636871
vn -0.543109 1.069277 0.366315
v -8.192490 14.455393 44.901501
vn 0.264661 0.441200 -1.028300
v -2.564851 12.458483 77.948547
vn -0.190015 0.376945 0.538772
v 1.880368 37.066368 110.211441
vn -0.395347 -0.376774 0.558798
v -2.582051 3.291964 90.299576
vn -0.425862 -0.405856 0.601930
v 9.679700 4.997551 100.124702
vn -0.058087 0.301575 0.965838
v -4.205371 -8.040327 93.740364
vn -0.275102 0.362884 1.756365
v 6.386195 8.425776 90.643585
vn -0.339386 -0.087656 0.776329
v -21.593699 -5.908784 86.379417
vn -0.599797 -0.154914 1.372005
v -14.117411 -16.906992 88.405998
vn -0.532766 0.006684 0.228428
v -20.018257 -24.491413 77.262794
vn -0.971355 0.012186 0.416477
v -19.341692 -1.290740 78.161926
vn 1.465575 0.299729 -0.009086
v 74.177460 6.971712 41.442955
vn -0.065612 -0.427025 0.746839
v 3.630415 -19.401827 88.538704
vn -0.105416 -0.686087 1.199923
v -6.772095 -27.367222 83.070396
vn -0.510947 0.544551 -0.370438
v -7.553542 1.506406 24.984909
vn -0.713086 -0.733149 -0.143064
v 16.296309 -30.711380 28.901667
vn -1.106322 0.374043 0.142817
v 8.905133 5.376803 5.274907
vn 0.001607 -0.003201 -1.747438
v 54.831985 12.990793 5.351871
vn 0.000956 -0.001904 -1.039481
v 54.923351 -0.264993 5.376235
vn 0.000326 -0.000650 -0.354667
v 22.395800 18.550373 5.311866
vn -0.566693 -0.329338 1.440183
v 47.880558 -23.292019 72.037971
vn 0.272557 -0.894900 0.719073
v 42.551220 -31.091362 64.351578
vn 0.000471 -0.001273 -0.609865
v -6.452787 -22.764629 5.375844
vn -0.338303 0.356944 0.106116
v -4.462166 33.056183 103.480209
vn 0.097547 1.167670 0.143569
v 32.650837 16.574064 59.561928
vn -0.352269 0.632737 -0.141603
v 6.239258 4.278805 21.569592
vn -0.766959 -0.876041 0.260807
v -4.711780 -24.598978 55.313019
vn -0.806187 -0.920849 0.274147
v -1.693329 -30.414913 44.653904
vn 1.121674 -0.912849 -0.663730
v 74.377953 -16.983009 5.280865
vn 0.767443 -0.624566 -0.454121
v 67.265984 -25.761890 5.335831
vn -0.277281 0.143842 -1.447926
v -5.434093 1.448322 7.630634
vn 0.801609 -0.014388 0.686916
v 67.756691 -19.785345 64.532501
vn 0.271016 -0.685507 -0.065866
v 42.713348 -41.427631 30.459379
vn 0.224815 -0.568646 -0.054637
v 62.885677 -34.117687 37.382732
vn 0.654627 -1.655809 -0.159096
v 49.207832 -39.966232 41.972366
vn -0.128344 -1.678470 0.143955
v 27.724054 -39.776821 41.868996
vn -0.048695 -0.636826 0.054618
v 31.180925 -41.306591 27.114344
vn -0.061612 -0.805761 0.069107
v 39.498386 -40.304123 46.218288
vn -0.088254 0.145932 0.533315
v 29.236950 1.372280 68.702370
vn -0.405610 0.335347 0.077300
v -9.316551 8.589153 87.904594
vn -1.084602 -0.715992 1.340266
v 1.371671 -29.638382 8.035669
vn -0.328643 0.139873 -0.066855
v -4.245932 23.641005 94.469864
vn -0.452422 -0.785370 0.642999
v -14.483150 -32.904858 70.881027
vn 0.238959 -0.117660 -0.146450
v 19.485271 38.630070 93.621155
vn -0.387447 1.507149 0.829744
v 17.373781 15.595675 62.434635
vn -0.191487 0.821755 1.137650
v 43.605114 11.608113 63.727177
vn 0.983646 -0.543384 -0.280708
v 21.240665 36.328995 104.226685
vn 0.215902 -0.217115 0.072932
v 5.315333 -16.999882 80.260056
vn 0.363335 -0.365376 0.122735
v -5.818198 -33.934971 62.803837
vn 1.575686 -1.584540 0.532267
v 1.500826 -25.917610 65.004501
vn -0.000742 -0.002308 -1.193540
v 70.471558 -5.591371 5.294834
vn -0.389488 -0.561138 0.467623
v 23.549337 -31.615866 47.895332
vn -0.268953 -0.653971 -0.490971
v -1.425834 -28.697832 35.927811
vn -0.037643 1.172331 0.034188
v 41.233246 26.831974 32.638805
vn 0.495117 1.192965 0.651014
v 79.977448 -3.087993 21.758730
vn -0.023206 0.328432 -0.359446
v 30.041061 30.601151 103.612564
vn -0.000924 0.012871 -2.666133
v 46.470150 -32.180119 5.312054
vn 0.037988 0.806449 -0.907905
v 2.113453 16.716484 32.444763
vn -0.435182 -0.875081 0.058267
v 12.697721 -28.181570 5.310379
vn -0.976661 -0.341346 -0.606273
v 6.419781 -6.827970 13.851887
vn -0.653596 0.926437 -0.413611
v 3.269821 34.315594 94.082901
vn 0.071840 -0.668352 0.695726
v 10.608130 28.953554 101.516609
vn -1.056126 0.156476 0.456945
v -2.154797 20.623608 100.336327
vn 0.378650 -0.418173 -0.181111
v 35.530037 14.819423 95.245407
# 148 vertices, 0 vertices normals

f 1//1 2//2 3//3
f 4//4 5//5 6//6
f 7//7 8//8 9//9
f 10//10 11//11 12//12
f 1//1 13//13 14//14
f 15//15 16//16 3//3
f 17//17 18//18 19//19
f 20//20 21//21 22//22
f 23//23 24//24 25//25
f 26//26 27//27 20//20
f 28//28 29//29 30//30
f 27//27 31//31 32//32
f 33//33 34//34 29//29
f 35//35 36//36 37//37
f 38//38 39//39 40//40
f 41//41 42//42 43//43
f 44//44 24//24 23//23
f 38//38 45//45 46//46
f 47//47 48//48 19//19
f 49//49 50//50 51//51
f 52//52 53//53 54//54
f 55//55 56//56 39//39
f 57//57 58//58 59//59
f 60//60 61//61 62//62
f 63//63 56//56 64//64
f 62//62 42//42 41//41
f 65//65 66//66 67//67
f 68//68 60//60 69//69
f 70//70 71//71 72//72
f 73//73 74//74 75//75
f 76//76 77//77 78//78
f 57//57 68//68 58//58
f 79//79 80//80 39//39
f 81//81 25//25 82//82
f 83//83 48//48 84//84
f 14//14 85//85 84//84
f 45//45 38//38 86//86
f 87//87 44//44 23//23
f 88//88 51//51 89//89
f 90//90 51//51 88//88
f 46//46 88//88 91//91
f 92//92 93//93 90//90
f 47//47 94//94 95//95
f 68//68 69//69 96//96
f 97//97 93//93 98//98
f 20//20 22//22 26//26
f 76//76 85//85 99//99
f 40//40 14//14 84//84
f 100//100 28//28 54//54
f 101//101 35//35 37//37
f 102//102 103//103 104//104
f 83//83 76//76 70//70
f 75//75 74//74 57//57
f 98//98 93//93 94//94
f 105//105 73//73 12//12
f 91//91 38//38 46//46
f 106//106 67//67 105//105
f 104//104 103//103 107//107
f 23//23 108//108 87//87
f 109//109 2//2 1//1
f 13//13 36//36 110//110
f 111//111 71//71 112//112
f 91//91 55//55 39//39
f 113//113 42//42 114//114
f 68//68 57//57 74//74
f 59//59 58//58 15//15
f 115//115 101//101 34//34
f 104//104 37//37 36//36
f 102//102 26//26 103//103
f 106//106 105//105 12//12
f 68//68 74//74 116//116
f 117//117 118//118 119//119
f 120//120 121//121 122//122
f 3//3 32//32 1//1
f 83//83 85//85 76//76
f 36//36 32//32 31//31
f 123//123 73//73 75//75
f 70//70 72//72 83//83
f 32//32 36//36 13//13
f 7//7 63//63 64//64
f 37//37 104//104 101//101
f 124//124 95//95 92//92
f 125//125 30//30 107//107
f 126//126 81//81 124//124
f 18//18 94//94 19//19
f 111//111 11//11 10//10
f 51//51 9//9 89//89
f 94//94 127//127 98//98
f 15//15 3//3 2//2
f 86//86 38//38 40//40
f 34//34 33//33 115//115
f 46//46 45//45 128//128
f 40//40 129//129 14//14
f 107//107 29//29 34//34
f 130//130 123//123 75//75
f 128//128 131//131 46//46
f 132//132 133//133 134//134
f 79//79 10//10 80//80
f 124//124 81//81 95//95
f 132//132 10//10 49//49
f 121//121 4//4 117//117
f 48//48 83//83 19//19
f 68//68 96//96 58//58
f 114//114 107//107 135//135
f 103//103 22//22 135//135
f 66//66 118//118 60//60
f 11//11 111//111 112//112
f 14//14 109//109 1//1
f 12//12 136//136 106//106
f 137//137 28//28 100//100
f 8//8 55//55 91//91
f 138//138 32//32 3//3
f 24//24 82//82 25//25
f 44//44 131//131 24//24
f 124//124 92//92 88//88
f 41//41 139//139 21//21
f 89//89 8//8 91//91
f 65//65 67//67 122//122
f 94//94 18//18 127//127
f 6//6 61//61 118//118
f 132//132 134//134 10//10
f 67//67 106//106 122//122
f 56//56 55//55 140//140
f 109//109 123//123 130//130
f 106//106 136//136 120//120
f 34//34 104//104 107//107
f 81//81 48//48 95//95
f 137//137 112//112 78//78
f 49//49 10//10 79//79
f 62//62 41//41 69//69
f 41//41 43//43 139//139
f 136//136 100//100 120//120
f 123//123 109//109 40//40
f 141//141 107//107 114//114
f 142//142 13//13 110//110
f 100//100 136//136 11//11
f 101//101 115//115 35//35
f 114//114 42//42 62//62
f 138//138 27//27 32//32
f 8//8 89//89 9//9
f 63//63 7//7 9//9
f 86//86 84//84 81//81
f 17//17 133//133 127//127
f 7//7 64//64 140//140
f 121//121 120//120 100//100
f 132//132 98//98 133//133
f 89//89 91//91 88//88
f 96//96 69//69 21//21
f 50//50 9//9 51//51
f 21//21 69//69 41//41
f 26//26 102//102 36//36
f 143//143 54//54 30//30
f 42//42 113//113 43//43
f 28//28 144//144 29//29
f 73//73 123//123 12//12
f 52//52 143//143 141//141
f 103//103 135//135 107//107
f 92//92 95//95 94//94
f 1//1 32//32 13//13
f 108//108 23//23 145//145
f 92//92 90//90 88//88
f 11//11 136//136 12//12
f 109//109 59//59 2//2
f 146//146 44//44 87//87
f 141//141 4//4 53//53
f 54//54 28//28 30//30
f 115//115 33//33 144//144
f 98//98 132//132 97//97
f 16//16 20//20 27//27
f 122//122 117//117 119//119
f 106//106 120//120 122//122
f 57//57 59//59 130//130
f 142//142 99//99 85//85
f 52//52 141//141 53//53
f 132//132 49//49 97//97
f 108//108 145//145 126//126
f 101//101 104//104 34//34
f 116//116 67//67 66//66
f 137//137 100//100 112//112
f 110//110 35//35 144//144
f 5//5 141//141 114//114
f 35//35 110//110 36//36
f 6//6 5//5 61//61
f 40//40 80//80 123//123
f 116//116 73//73 105//105
f 30//30 125//125 143//143
f 16//16 15//15 58//58
f 70//70 78//78 71//71
f 111//111 10//10 134//134
f 73//73 116//116 74//74
f 86//86 40//40 84//84
f 60//60 62//62 69//69
f 72//72 71//71 111//111
f 14//14 142//142 85//85
f 131//131 128//128 24//24
f 100//100 11//11 112//112
f 21//21 16//16 96//96
f 82//82 86//86 81//81
f 76//76 99//99 77//77
f 70//70 76//76 78//78
f 146//146 131//131 44//44
f 49//49 90//90 97//97
f 45//45 86//86 82//82
f 21//21 20//20 16//16
f 145//145 25//25 81//81
f 116//116 66//66 68//68
f 29//29 107//107 30//30
f 31//31 26//26 36//36
f 67//67 116//116 105//105
f 111//111 134//134 133//133
f 84//84 85//85 83//83
f 99//99 142//142 110//110
f 140//140 64//64 56//56
f 50//50 63//63 9//9
f 147//147 126//126 124//124
f 139//139 135//135 21//21
f 78//78 77//77 28//28
f 54//54 143//143 52//52
f 114//114 62//62 61//61
f 49//49 79//79 50//50
f 108//108 126//126 147//147
f 56//56 79//79 39//39
f 113//113 114//114 135//135
f 122//122 121//121 117//117
f 72//72 19//19 83//83
f 125//125 107//107 143//143
f 23//23 25//25 145//145
f 82//82 128//128 45//45
f 29//29 144//144 33//33
f 26//26 22//22 103//103
f 139//139 43//43 135//135
f 99//99 110//110 77//77
f 60//60 118//118 61//61
f 147//147 124//124 88//88
f 123//123 80//80 12//12
f 54//54 53//53 121//121
f 142//142 14//14 13//13
f 130//130 59//59 109//109
f 75//75 57//57 130//130
f 3//3 27//27 138//138
f 55//55 8//8 140//140
f 115//115 144//144 35//35
f 128//128 82//82 24//24
f 121//121 100//100 54//54
f 92//92 94//94 93//93
f 18//18 17//17 127//127
f 65//65 122//122 119//119
f 16//16 58//58 96//96
f 145//145 81//81 126//126
f 118//118 117//117 6//6
f 50//50 79//79 148//148
f 88//88 46//46 146//146
f 80//80 10//10 12//12
f 148//148 63//63 50//50
f 21//21 135//135 22//22
f 94//94 47//47 19//19
f 110//110 28//28 77//77
f 66//66 60//60 68//68
f 147//147 87//87 108//108
f 46//46 131//131 146//146
f 111//111 17//17 72//72
f 27//27 26//26 31//31
f 121//121 53//53 4//4
f 90//90 93//93 97//97
f 78//78 28//28 137//137
f 65//65 118//118 66//66
f 17//17 19//19 72//72
f 65//65 119//119 118//118
f 43//43 113//113 135//135
f 81//81 84//84 48//48
f 16//16 27//27 3//3
f 109//109 14//14 129//129
f 51//51 90//90 49//49
f 111//111 133//133 17//17
f 144//144 28//28 110//110
f 129//129 40//40 109//109
f 36//36 102//102 104//104
f 91//91 39//39 38//38
f 95//95 48//48 47//47
f 4//4 141//141 5//5
f 71//71 78//78 112//112
f 133//133 98//98 127//127
f 147//147 88//88 146//146
f 143//143 107//107 141//141
f 59//59 15//15 2//2
f 4//4 6//6 117//117
f 147//147 146//146 87//87
f 140//140 8//8 7//7
f 5//5 114//114 61//61
f 39//39 80//80 40//40
f 148//148 79//79 56//56
f 63//63 148//148 56//56
# 292 faces, 0 coords texture

# End of File
